{
  "accessors": [
    {
      "bufferView": 2,
      "componentType": 5126,
      "count": 554,
      "max": [
        -0.19950799643993378,
        0.50598698854446411,
        0.095109298825263977
      ],
      "min": [
        -0.50812602043151855,
        -0.076830402016639709,
        -0.093574300408363342
      ],
      "type": "VEC3"
    },
    {
      "bufferView": 2,
      "byteOffset": 6648,
      "componentType": 5126,
      "count": 554,
      "max": [
        0.99997663497924805,
        0.91931825876235962,
        0.99990862607955933
      ],
      "min": [
        -0.99997591972351074,
        -0.91037678718566895,
        -0.99954813718795776
      ],
      "type": "VEC3"
    },
    {
      "bufferView": 3,
      "componentType": 5126,
      "count": 554,
      "max": [
        1,
        0.99998170137405396,
        0.99987876415252686,
        1
      ],
      "min": [
        -0.99999994039535522,
        -0.99999874830245972,
        -0.99629229307174683,
        -1
      ],
      "type": "VEC4"
    },
    {
      "bufferView": 1,
      "componentType": 5126,
      "count": 554,
      "max": [
        0.99370002746582031,
        0.9562000036239624
      ],
      "min": [
        0.014800000004470348,
        0.01269999984651804
      ],
      "type": "VEC2"
    },
    {
      "bufferView": 0,
      "componentType": 5125,
      "count": 2016,
      "max": [
        553
      ],
      "min": [
        0
      ],
      "type": "SCALAR"
    },
    {
      "bufferView": 2,
      "byteOffset": 13296,
      "componentType": 5126,
      "count": 927,
      "max": [
        -0.26787200570106506,
        0.19651000201702118,
        0.15694500505924225
      ],
      "min": [
        -1,
        -0.50598698854446411,
        -0.15694500505924225
      ],
      "type": "VEC3"
    },
    {
      "bufferView": 2,
      "byteOffset": 24420,
      "componentType": 5126,
      "count": 927,
      "max": [
        0.92588907480239868,
        1,
        0.92686808109283447
      ],
      "min": [
        -0.92588907480239868,
        -1,
        -0.92686808109283447
      ],
      "type": "VEC3"
    },
    {
      "bufferView": 3,
      "byteOffset": 8864,
      "componentType": 5126,
      "count": 927,
      "max": [
        1,
        0.9264790415763855,
        0.99999839067459106,
        1
      ],
      "min": [
        -0.99999988079071045,
        -0.92683881521224976,
        -1,
        -1
      ],
      "type": "VEC4"
    },
    {
      "bufferView": 1,
      "byteOffset": 4432,
      "componentType": 5126,
      "count": 927,
      "max": [
        0.98830002546310425,
        0.98320001363754272
      ],
      "min": [
        0.017899999395012856,
        0.012400000356137753
      ],
      "type": "VEC2"
    },
    {
      "bufferView": 0,
      "byteOffset": 8064,
      "componentType": 5125,
      "count": 3060,
      "max": [
        926
      ],
      "min": [
        0
      ],
      "type": "SCALAR"
    },
    {
      "bufferView": 2,
      "byteOffset": 35544,
      "componentType": 5126,
      "count": 458,
      "max": [
        1,
        0.25896599888801575,
        0.14572000503540039
      ],
      "min": [
        -0.51773399114608765,
        -0.032225500792264938,
        -0.14546799659729004
      ],
      "type": "VEC3"
    },
    {
      "bufferView": 2,
      "byteOffset": 41040,
      "componentType": 5126,
      "count": 458,
      "max": [
        0.99964350461959839,
        0.99112898111343384,
        0.99724125862121582
      ],
      "min": [
        -1,
        -0.99681079387664795,
        -0.98699045181274414
      ],
      "type": "VEC3"
    },
    {
      "bufferView": 3,
      "byteOffset": 23696,
      "componentType": 5126,
      "count": 458,
      "max": [
        0.99675953388214111,
        0.97715461254119873,
        0.99999779462814331,
        1
      ],
      "min": [
        -0.99680632352828979,
        -0.98641014099121094,
        -0.99999880790710449,
        1
      ],
      "type": "VEC4"
    },
    {
      "bufferView": 1,
      "byteOffset": 11848,
      "componentType": 5126,
      "count": 458,
      "max": [
        0.98430001735687256,
        0.9836999773979187
      ],
      "min": [
        0.017100000753998756,
        0.028599999845027924
      ],
      "type": "VEC2"
    },
    {
      "bufferView": 0,
      "byteOffset": 20304,
      "componentType": 5125,
      "count": 1728,
      "max": [
        457
      ],
      "min": [
        0
      ],
      "type": "SCALAR"
    }
  ],
  "asset": {
    "extras": {
      "author": "KylePCT (https://sketchfab.com/kylepct)",
      "license": "CC-BY-4.0 (http://creativecommons.org/licenses/by/4.0/)",
      "source": "https://sketchfab.com/3d-models/tattoo-gun-790056757fa84499b69d506b26f975a4",
      "title": "Tattoo Gun"
    },
    "generator": "Sketchfab-7.68.0",
    "version": "2.0"
  },
  "bufferViews": [
    {
      "buffer": 0,
      "byteLength": 27216,
      "byteOffset": 0,
      "name": "floatBufferViews",
      "target": 34963
    },
    {
      "buffer": 0,
      "byteLength": 15512,
      "byteOffset": 27216,
      "byteStride": 8,
      "name": "floatBufferViews",
      "target": 34962
    },
    {
      "buffer": 0,
      "byteLength": 46536,
      "byteOffset": 42728,
      "byteStride": 12,
      "name": "floatBufferViews",
      "target": 34962
    },
    {
      "buffer": 0,
      "byteLength": 31024,
      "byteOffset": 89264,
      "byteStride": 16,
      "name": "floatBufferViews",
      "target": 34962
    }
  ],
  "buffers": [
    {
      "byteLength": 120288,
      "uri": "scene.bin"
    }
  ],
  "images": [
    {
      "uri": "textures/FrontNeedle_baseColor.jpeg"
    },
    {
      "uri": "textures/FrontNeedle_metallicRoughness.png"
    },
    {
      "uri": "textures/FrontNeedle_normal.png"
    },
    {
      "uri": "textures/VibrationCartridge_baseColor.jpeg"
    },
    {
      "uri": "textures/VibrationCartridge_metallicRoughness.png"
    },
    {
      "uri": "textures/VibrationCartridge_normal.png"
    },
    {
      "uri": "textures/Secure_baseColor.jpeg"
    },
    {
      "uri": "textures/Secure_metallicRoughness.png"
    },
    {
      "uri": "textures/Secure_normal.png"
    }
  ],
  "materials": [
    {
      "doubleSided": true,
      "emissiveFactor": [
        0,
        0,
        0
      ],
      "name": "FrontNeedle",
      "normalTexture": {
        "index": 2,
        "scale": 1,
        "texCoord": 0
      },
      "pbrMetallicRoughness": {
        "baseColorFactor": [
          1,
          1,
          1,
          1
        ],
        "baseColorTexture": {
          "index": 0,
          "texCoord": 0
        },
        "metallicFactor": 1,
        "metallicRoughnessTexture": {
          "index": 1,
          "texCoord": 0
        },
        "roughnessFactor": 1
      }
    },
    {
      "doubleSided": true,
      "emissiveFactor": [
        0,
        0,
        0
      ],
      "name": "VibrationCartridge",
      "normalTexture": {
        "index": 5,
        "scale": 1,
        "texCoord": 0
      },
      "pbrMetallicRoughness": {
        "baseColorFactor": [
          1,
          1,
          1,
          1
        ],
        "baseColorTexture": {
          "index": 3,
          "texCoord": 0
        },
        "metallicFactor": 1,
        "metallicRoughnessTexture": {
          "index": 4,
          "texCoord": 0
        },
        "roughnessFactor": 1
      }
    },
    {
      "doubleSided": true,
      "name": "Secure",
      "normalTexture": {
        "index": 8,
        "scale": 1,
        "texCoord": 0
      },
      "pbrMetallicRoughness": {
        "baseColorFactor": [
          1,
          1,
          1,
          1
        ],
        "baseColorTexture": {
          "index": 6,
          "texCoord": 0
        },
        "metallicFactor": 1,
        "metallicRoughnessTexture": {
          "index": 7,
          "texCoord": 0
        },
        "roughnessFactor": 1
      }
    }
  ],
  "meshes": [
    {
      "name": "defaultMaterial",
      "primitives": [
        {
          "attributes": {
            "NORMAL": 1,
            "POSITION": 0,
            "TANGENT": 2,
            "TEXCOORD_0": 3
          },
          "indices": 4,
          "material": 2,
          "mode": 4
        }
      ]
    },
    {
      "name": "defaultMaterial",
      "primitives": [
        {
          "attributes": {
            "NORMAL": 6,
            "POSITION": 5,
            "TANGENT": 7,
            "TEXCOORD_0": 8
          },
          "indices": 9,
          "material": 1,
          "mode": 4
        }
      ]
    },
    {
      "name": "defaultMaterial",
      "primitives": [
        {
          "attributes": {
            "NORMAL": 11,
            "POSITION": 10,
            "TANGENT": 12,
            "TEXCOORD_0": 13
          },
          "indices": 14,
          "material": 0,
          "mode": 4
        }
      ]
    }
  ],
  "nodes": [
    {
      "children": [
        1
      ],
      "name": "RootNode (gltf orientation matrix)",
      "rotation": [
        -0.70710678118654746,
        -0,
        -0,
        0.70710678118654757
      ]
    },
    {
      "children": [
        2
      ],
      "name": "RootNode (model correction matrix)"
    },
    {
      "children": [
        3,
        5,
        7
      ],
      "matrix": [
        1,
        0,
        0,
        0,
        0,
        -4.3711390063094768e-08,
        0.999999999999999,
        0,
        0,
        -0.999999999999999,
        -4.3711390063094768e-08,
        0,
        0,
        0,
        0,
        1
      ],
      "name": "Collada visual scene group"
    },
    {
      "children": [
        4
      ],
      "name": "g"
    },
    {
      "mesh": 0,
      "name": "defaultMaterial"
    },
    {
      "children": [
        6
      ],
      "name": "g"
    },
    {
      "mesh": 1,
      "name": "defaultMaterial"
    },
    {
      "children": [
        8
      ],
      "name": "g"
    },
    {
      "mesh": 2,
      "name": "defaultMaterial"
    }
  ],
  "samplers": [
    {
      "magFilter": 9729,
      "minFilter": 9987,
      "wrapS": 10497,
      "wrapT": 10497
    }
  ],
  "scene": 0,
  "scenes": [
    {
      "name": "OSG_Scene",
      "nodes": [
        0
      ]
    }
  ],
  "textures": [
    {
      "sampler": 0,
      "source": 0
    },
    {
      "sampler": 0,
      "source": 1
    },
    {
      "sampler": 0,
      "source": 2
    },
    {
      "sampler": 0,
      "source": 3
    },
    {
      "sampler": 0,
      "source": 4
    },
    {
      "sampler": 0,
      "source": 5
    },
    {
      "sampler": 0,
      "source": 6
    },
    {
      "sampler": 0,
      "source": 7
    },
    {
      "sampler": 0,
      "source": 8
    }
  ]
}

